<?xml version="1.0" ?><svg style="enable-background:new 0 0 48 48;" version="1.1" viewBox="0 0 48 48" xml:space="preserve" xmlns="http://www.w3.org/2000/svg" xmlns:xlink="http://www.w3.org/1999/xlink"><g id="Padding__x26__Artboard"/><g id="Icons"><g><path d="M35.2951,12.62171c-0.10107-0.11621-0.2666-0.15039-0.40625-0.08887    c-0.40918,0.18262-0.79688,0.30664-1.1333,0.39062c0.78271-0.84863,1.05859-1.70312,1.07324-1.75098    c0.04248-0.13574-0.00146-0.28418-0.11133-0.37402c-0.10986-0.0918-0.26318-0.10449-0.38867-0.03906    c-1.3501,0.72754-2.24463,0.93359-2.59717,0.99023c-1.47021-1.81836-3.85547-1.7168-5.60791-0.78223    c-1.69824,0.90527-3.18701,2.78711-2.71777,4.91211c-5.40723-0.37988-8.58838-4.50098-8.62061-4.54395    c-0.06934-0.0918-0.16113-0.14258-0.2959-0.13867c-0.11523,0.00586-0.22021,0.06738-0.28125,0.16602    c-1.5376,2.4873-0.29688,4.59961,0.6333,5.67969c-0.48438-0.14258-0.88477-0.33789-0.89111-0.34082    c-0.1084-0.05469-0.23828-0.04883-0.34131,0.01758c-0.10303,0.06445-0.16504,0.17871-0.16357,0.2998    c0.02783,2.46094,1.41846,3.71289,2.53418,4.32227c-0.30908-0.00879-0.50879-0.04297-0.51318-0.04395    c-0.12354-0.02539-0.25391,0.02539-0.3335,0.12598c-0.08008,0.09863-0.09961,0.23438-0.05127,0.35156    c0.93213,2.26562,2.56787,3.00684,3.59863,3.24902c-2.56396,1.63477-5.64014,1.33594-5.67529,1.33301    c-0.16504-0.02734-0.31494,0.08008-0.36768,0.23438c-0.05273,0.15527,0.0083,0.3252,0.14697,0.41113    c1.71826,1.06055,4.33594,1.87402,6.51367,2.02441c0.21094,0.01465,0.43408,0.02148,0.66797,0.02148    c2.33887,0,5.71289-0.76758,8.44043-3.00195c2.91016-2.38281,4.05908-5.73047,4.48486-7.51465    c0.26074-1.0918,0.32471-2.68848,0.33936-3.2207c1.26514-0.93848,2.06396-2.21875,2.09863-2.27539    C35.40985,12.90491,35.39618,12.73694,35.2951,12.62171z M27.60321,24.57776c-0.0918,0-0.18359-0.03516-0.25195-0.10645    c-0.13428-0.13965-0.12988-0.36133,0.00928-0.49512c0.19922-0.19238,0.38428-0.39062,0.55518-0.5918    c0.12354-0.14746,0.34473-0.16504,0.49316-0.04004c0.14746,0.125,0.16553,0.3457,0.04004,0.49316    c-0.18555,0.21875-0.38623,0.43457-0.60303,0.64258C27.77802,24.54554,27.69061,24.57776,27.60321,24.57776z M28.7829,22.37464    c0.61572-0.8623,1.11523-1.87793,1.44385-2.93652c0.05811-0.18457,0.25342-0.28711,0.43848-0.23047    c0.18457,0.05664,0.2876,0.25293,0.23047,0.4375c-0.35107,1.12891-0.88477,2.21387-1.54346,3.13574    c-0.06836,0.0957-0.17578,0.14648-0.28516,0.14648c-0.07031,0-0.14111-0.02051-0.20312-0.06445    C28.70673,22.75062,28.67059,22.53187,28.7829,22.37464z" style="fill:#303030;"/><path d="M20.4353,34.33289c-0.23865,0.03558-0.4389,0.26434-0.4425,0.52142    c-0.00537,0.38477-0.00006,0.76965-0.00415,1.15442c-0.00079,0.07526-0.01221,0.1546-0.0387,0.22455    c-0.09491,0.25055-0.34668,0.38397-0.6178,0.33655c-0.24158-0.04224-0.43512-0.27557-0.43787-0.5412    c-0.00403-0.38477,0.00519-0.76984-0.00531-1.15436c-0.00287-0.10358-0.03705-0.21765-0.09088-0.30621    c-0.12842-0.21094-0.37787-0.29181-0.61682-0.22333c-0.2312,0.06635-0.39636,0.28119-0.39923,0.53662    c-0.00433,0.38477,0.00464,0.76978-0.00525,1.15436c-0.00262,0.09985-0.0354,0.21002-0.08722,0.29547    c-0.12994,0.21423-0.38019,0.29712-0.61407,0.22504c-0.23444-0.07233-0.38635-0.27972-0.38849-0.54321    c-0.00311-0.38074,0.00189-0.76154-0.00189-1.14227c-0.00323-0.32556-0.2334-0.54706-0.55603-0.54401    c-0.31494,0.00305-0.53809,0.22955-0.5387,0.54858c-0.00073,0.39294-0.00043,0.78583-0.00012,1.17877    c0.00043,0.72504,0.50079,1.37988,1.20123,1.5719c0.07678,0.02106,0.59786,0.0989,0.98114-0.0307    c0.10235-0.03461,0.20123-0.08325,0.29492-0.13727c0.09357-0.05402,0.17877-0.12256,0.27515-0.19006    c0.21655,0.18414,0.45961,0.32322,0.74292,0.3783c0.16399,0.03188,0.62256,0.01715,0.65338,0.01196    c0.71539-0.1217,1.29968-0.74487,1.34149-1.46429c0.02557-0.44006,0.01361-0.88232,0.01483-1.32361    c0.00018-0.05939-0.01422-0.12103-0.0332-0.17786C20.97498,34.43146,20.72467,34.28962,20.4353,34.33289z" style="fill:#303030;"/><path d="M11.89178,33.31202c-0.01373,0.03229-0.03125,0.06293-0.047,0.09436c0,0.90759,0,1.81519,0,2.72278    c0.00895,0.13937,0.04013,0.23217,0.05209,0.28643c0.15753,0.7146,0.71537,1.12095,1.43747,1.24512    c0.21488,0.03695,1.51004,0.05513,1.75812-0.06219c0.23925-0.11316,0.33398-0.40204,0.2677-0.66138    c-0.06281-0.24548-0.29791-0.42987-0.5658-0.43256c-0.38861-0.00391-0.77728,0.00134-1.16583-0.00195    c-0.29083-0.0025-0.52606-0.17065-0.57764-0.44037c-0.0343-0.17914-0.02258-0.36713-0.03217-0.56683c0.06635,0,0.1098,0,0.15326,0    c0.50189,0,1.00397,0.00446,1.5058-0.00366c0.10431-0.00165,0.21936-0.02942,0.30957-0.08044    c0.21783-0.12311,0.3056-0.36969,0.23956-0.60663c-0.06549-0.23517-0.26874-0.39655-0.5191-0.39838    c-0.51007-0.00372-1.02014-0.0014-1.53015-0.00159c-0.04694,0-0.09381,0-0.15143,0c0-0.06305,0-0.10699,0-0.15094    c0-0.24286,0.00323-0.48584-0.00092-0.72864c-0.00476-0.27527-0.20282-0.5072-0.46851-0.55774    C12.27039,32.91297,12.00226,33.05219,11.89178,33.31202z" style="fill:#303030;"/><path d="M32.29065,36.31885c0.38275-0.00134,0.54852-0.16187,0.52954-0.5437    c-0.0257-0.51593-0.28784-0.90082-0.71704-1.17218c-0.40009-0.25299-0.84784-0.29932-1.30829-0.27148    c-0.43372,0.02625-0.82959,0.15186-1.13257,0.47943c-0.76379,0.82581-0.54279,2.43577,0.8869,2.82245    c0.19091,0.05164,1.7106,0.06525,1.8161,0.02893c0.2561-0.08816,0.37427-0.30688,0.32947-0.53931    c-0.04639-0.24072-0.23761-0.38409-0.51367-0.3844c-0.33606-0.00031-0.67267,0.01215-1.00781-0.005    c-0.1778-0.00909-0.35791-0.05426-0.52765-0.11108c-0.1214-0.04059-0.19904-0.14526-0.19226-0.30316c0.0498,0,0.09338,0,0.13702,0    C31.15717,36.31934,31.72394,36.3208,32.29065,36.31885z M31.00726,35.17585c0.33624-0.01361,0.66595,0.14984,0.62183,0.38953    c-0.38953,0-0.77216,0-1.15436,0C30.46002,35.3443,30.68231,35.18897,31.00726,35.17585z" style="fill:#303030;"/><path d="M28.4043,35.49524c0.32562-0.0011,0.56482-0.22656,0.56952-0.5351    c0.00476-0.31427-0.23383-0.55139-0.56366-0.55469c-0.2915-0.00293-0.58307-0.00067-0.87457-0.00073    c-0.04303,0-0.08606,0-0.14191,0c0-0.29181,0.00061-0.56635-0.00012-0.84082c-0.00104-0.34894-0.25208-0.60889-0.58746-0.60962    c-0.33447-0.00073-0.58948,0.2486-0.59082,0.59222c-0.00305,0.80981-0.00739,1.61975,0.00262,2.42944    c0.00952,0.76758,0.56433,1.4588,1.30511,1.65112c0.08124,0.02106,0.1722,0.04705,0.293,0.06093    c0.29175,0,0.73912,0.01202,0.85452-0.0251c0.33045-0.1063,0.48425-0.3761,0.42676-0.68384    c-0.05328-0.28552-0.30438-0.47485-0.63-0.47559c-0.17407-0.00037-0.34845,0.00452-0.52222-0.0036    c-0.25494-0.0119-0.47705-0.18054-0.52472-0.42804c-0.03522-0.18274-0.02429-0.37439-0.03473-0.57642    c0.06921,0,0.11273,0,0.15619,0C27.82935,35.49543,28.11682,35.49622,28.4043,35.49524z" style="fill:#303030;"/><path d="M24.27759,33.39887c-0.06665-0.28064-0.34558-0.474-0.62842-0.44232    c-0.31299,0.03503-0.52673,0.26526-0.52734,0.57623c-0.00165,0.81012-0.00189,1.62018-0.00024,2.4303    c0.00177,0.82007,0.63446,1.55945,1.44556,1.69409c0.03046,0.00507,0.89132,0.04507,1.00647,0.00507    c0.30778-0.10693,0.47498-0.3634,0.42554-0.66016c-0.05035-0.30231-0.28717-0.49646-0.60846-0.49847    c-0.18225-0.00116-0.36487,0.00543-0.54663-0.00439c-0.25201-0.01355-0.44116-0.14764-0.50598-0.38464    c-0.05267-0.19269-0.03967-0.40326-0.05682-0.61914c0.07886,0,0.1228,0,0.16675,0c0.29565,0,0.59167,0.00732,0.8869-0.00415    c0.10004-0.00391,0.20947-0.03687,0.29517-0.08868c0.2077-0.12573,0.29187-0.37482,0.22565-0.60406    c-0.06537-0.2262-0.27179-0.38837-0.51355-0.39191c-0.31183-0.00464-0.62378-0.00409-0.93561-0.00031    c-0.0838,0.00104-0.11444-0.02411-0.11273-0.10986c0.00452-0.22675,0.00275-0.45367,0.00067-0.68048    C24.29388,33.54346,24.29419,33.46869,24.27759,33.39887z" style="fill:#303030;"/><path d="M35.4624,34.40192c-0.25806,0.0152-0.51782-0.00177-0.77643,0.00671    c-0.80627,0.02655-1.51373,0.74811-1.52362,1.55353c-0.00482,0.39636-0.0014,0.79285-0.00067,1.18927    c0.00043,0.23785,0.12689,0.39154,0.33276,0.49084c0.02826,0.01361,0.05591,0.02844,0.0838,0.04272c0.08105,0,0.16211,0,0.24316,0    c0.05023-0.02417,0.10284-0.04443,0.15033-0.07312c0.17957-0.10858,0.27661-0.26715,0.27722-0.47931    c0.00098-0.34351-0.00085-0.68701,0.00061-1.03052c0.00165-0.38977,0.2204-0.60632,0.6098-0.60663    c0.20612-0.00012,0.41296-0.01123,0.6181,0.0025c0.34064,0.02283,0.56628-0.11536,0.67773-0.43848c0-0.07294,0-0.14581,0-0.21875    C36.04016,34.5113,35.8053,34.38172,35.4624,34.40192z" style="fill:#303030;"/><path d="M21.51898,37.12787c0.00037,0.1582,0.06329,0.29529,0.18597,0.39276    c0.08337,0.06622,0.1615,0.13113,0.27728,0.16437c0.08099,0,0.16205,0,0.2431,0c0.3587-0.12341,0.48077-0.3786,0.47058-0.74963    c-0.01819-0.66321-0.00452-1.32733-0.00604-1.99109c-0.00018-0.06799-0.00323-0.13885-0.02191-0.20355    c-0.08221-0.2843-0.34607-0.44537-0.65948-0.40924c-0.26154,0.03021-0.48651,0.27057-0.48865,0.55023    C21.51404,35.63044,21.51733,36.37915,21.51898,37.12787z" style="fill:#303030;"/><path d="M22.02716,33.99872c0.25793,0.03851,0.52502-0.11505,0.62573-0.35968    c0.10168-0.24725,0.02509-0.53247-0.19513-0.69336c-0.07001-0.05115-0.15454-0.0824-0.23242-0.12274    c-0.08105,0-0.16211,0-0.24316,0c-0.02875,0.01282-0.05707,0.02686-0.08643,0.03833    c-0.26617,0.10364-0.40918,0.35339-0.37244,0.651C21.5531,33.75318,21.76721,33.9599,22.02716,33.99872z" style="fill:#303030;"/></g></g></svg>